# Blender 3.3.1
# www.blender.org
mtllib tree.mtl
o Tree_Type1_03_Model.001_Circle.001
v -0.048763 -0.014201 0.088292
v -0.097525 -0.014201 0.003834
v -0.048763 -0.014201 -0.080624
v 0.048761 -0.014201 -0.080624
v 0.097523 -0.014201 0.003834
v 0.048761 -0.014201 0.088292
v -0.048763 0.651025 0.088292
v -0.097525 0.651025 0.003834
v -0.048763 0.651025 -0.080624
v 0.048761 0.651025 -0.080624
v 0.097523 0.651025 0.003834
v 0.048761 0.651025 0.088292
v -0.489419 0.495862 0.851531
v -0.978837 0.495862 0.003834
v -0.489419 0.495862 -0.843864
v 0.489418 0.495862 -0.843864
v 0.978836 0.495862 0.003834
v 0.489418 0.495862 0.851531
v -0.205789 1.164845 0.341255
v -0.411576 1.180911 -0.014818
v -0.205789 1.196977 -0.370890
v 0.205787 1.196977 -0.370890
v 0.411574 1.180911 -0.014818
v 0.205787 1.164845 0.341255
v -0.436305 0.883834 0.728250
v -0.872611 0.917896 -0.026685
v -0.436306 0.951958 -0.781619
v 0.436305 0.951958 -0.781619
v 0.872610 0.917896 -0.026685
v 0.436305 0.883834 0.728250
v -0.147834 1.817377 0.270215
v -0.295666 1.828918 0.014420
v -0.147834 1.840461 -0.241374
v 0.147832 1.840461 -0.241374
v 0.295665 1.828918 0.014420
v 0.147832 1.817377 0.270215
v -0.320496 1.562736 0.548964
v -0.640990 1.612251 -0.003936
v -0.320496 1.661767 -0.556838
v 0.320495 1.661767 -0.556838
v 0.640989 1.612251 -0.003937
v 0.320495 1.562736 0.548964
v -0.000000 2.964005 0.117119
vn -0.8660 -0.0000 -0.5000
vn -0.0000 -0.0000 -1.0000
vn 0.8660 -0.0000 -0.5000
vn -0.1725 -0.9800 0.0996
vn -0.0000 -1.0000 -0.0000
vn -0.8660 -0.0000 0.5000
vn -0.0000 -0.0000 1.0000
vn 0.8660 -0.0000 0.5000
vn 0.7083 0.5754 -0.4089
vn -0.1725 -0.9800 -0.0996
vn -0.0000 -0.9800 -0.1992
vn 0.1725 -0.9800 -0.0996
vn 0.1725 -0.9800 0.0996
vn -0.0000 -0.9800 0.1992
vn -0.4767 -0.8464 0.2373
vn 0.6933 0.5993 0.4003
vn -0.0000 0.6065 0.7951
vn -0.6933 0.5993 0.4003
vn -0.7083 0.5754 -0.4089
vn -0.0000 0.5592 -0.8290
vn 0.7595 0.4998 -0.4164
vn -0.4767 -0.8216 -0.3126
vn -0.0000 -0.8092 -0.5876
vn 0.4767 -0.8216 -0.3126
vn 0.4767 -0.8464 0.2373
vn -0.0000 -0.8588 0.5123
vn -0.5043 -0.8253 0.2542
vn 0.7595 0.4602 0.4597
vn -0.0000 0.4405 0.8978
vn -0.7595 0.4602 0.4597
vn -0.7595 0.4998 -0.4164
vn -0.0000 0.5195 -0.8544
vn -0.5496 -0.7578 -0.3518
vn -0.0000 -0.7383 -0.6745
vn 0.5496 -0.7578 -0.3518
vn 0.5043 -0.8253 0.2542
vn -0.0000 -0.8701 0.4929
vn 0.8016 0.4184 -0.4272
vn 0.8016 0.3358 0.4947
vn -0.0000 0.2945 0.9556
vn -0.8016 0.3358 0.4947
vn -0.8016 0.4184 -0.4272
vn -0.0000 0.4596 -0.8881
vn 0.7275 0.5609 -0.3951
vn 0.6912 0.5839 0.4258
vn -0.6912 0.5839 0.4258
vn -0.7275 0.5609 -0.3951
vn -0.4919 -0.8451 0.2095
vn -0.5087 -0.7799 -0.3647
vn 0.5087 -0.7799 -0.3647
vn 0.4919 -0.8451 0.2095
vt 0.296261 0.399048
vt 0.313143 0.392723
vt 0.257137 0.521815
vt 0.330024 0.402191
vt 0.286236 0.392723
vt 0.266674 0.392829
vt 0.330024 0.421547
vt 0.218013 0.521677
vt 0.257137 0.399260
vt 0.313143 0.431434
vt 0.227563 0.526072
vt 0.296261 0.421966
vt 0.296261 0.402610
vt 0.247125 0.526140
vt 0.296261 0.522680
vt 0.257137 0.392861
vt 0.179107 0.206144
vt 0.162405 0.215926
vt 0.286236 0.516356
vt 0.266674 0.516462
vt 0.145703 0.206144
vt 0.257137 0.522892
vt 0.218013 0.392723
vt 0.145703 0.186580
vt 0.162405 0.176798
vt 0.227563 0.397117
vt 0.247125 0.397186
vt 0.179107 0.186580
vt 0.689785 0.740786
vt 0.335272 0.294542
vt 0.890190 0.348097
vt 0.167636 0.392723
vt 0.753807 0.640508
vt 0.000000 0.294542
vt 0.753807 0.444164
vt 0.890190 0.740786
vt 0.000000 0.098181
vt 0.689785 0.348097
vt 0.167636 0.000000
vt 0.933957 0.644781
vt 0.933957 0.448437
vt 0.335272 0.098181
vt 0.760017 0.465618
vt 0.566175 0.622997
vt 0.554665 0.139113
vt 0.554665 0.221205
vt 0.590095 0.580880
vt 0.587095 0.498370
vt 0.483300 0.261776
vt 0.753807 0.630631
vt 0.411934 0.220256
vt 0.560175 0.457976
vt 0.411934 0.138164
vt 0.775315 0.590315
vt 0.778421 0.507809
vt 0.483300 0.097592
vt 0.506250 0.698201
vt 0.637885 0.088030
vt 0.175659 0.392723
vt 0.637885 0.262079
vt 0.560175 0.610807
vt 0.560175 0.435755
vt 0.486578 0.348097
vt 0.175659 0.742826
vt 0.335271 0.260067
vt 0.506250 0.348097
vt 0.218013 0.655694
vt 0.335272 0.086018
vt 0.486579 0.000000
vt 0.218013 0.480643
vt 0.158307 0.901069
vt 0.000000 0.508600
vt 0.335272 0.582523
vt 0.353543 0.552911
vt 0.107334 0.930726
vt 0.353543 0.493598
vt 0.056360 0.901069
vt 0.000000 0.627225
vt 0.335271 0.463897
vt 0.056360 0.841756
vt 0.014351 0.597703
vt 0.107334 0.812100
vt 0.014351 0.538390
vt 0.158307 0.841756
vt 0.637885 0.115507
vt 0.330745 0.869616
vt 0.222016 0.935706
vt 0.369944 0.931233
vt 0.111008 1.000000
vt 0.484660 0.989300
vt 0.000000 0.935706
vt 0.868103 0.000903
vt 0.560175 0.985751
vt 0.000000 0.807119
vt 0.794840 0.000000
vt 0.111008 0.742826
vt 0.679731 0.057302
vt 0.222016 0.807119
vt 0.868103 0.290978
vt 0.560175 0.698201
s 0
usemtl Material.004
f 10/24/4 17/39/4 11/25/4
f 16/36/9 23/54/9 17/40/9
f 17/39/10 12/28/10 11/25/10
f 12/28/11 13/30/11 7/17/11
f 7/17/12 14/32/12 8/18/12
f 14/32/13 9/21/13 8/18/13
f 15/34/14 10/24/14 9/21/14
f 22/51/15 29/68/15 23/53/15
f 17/40/16 24/55/16 18/41/16
f 24/55/17 13/31/17 18/41/17
f 19/44/18 14/33/18 13/29/18
f 20/47/19 15/35/19 14/33/19
f 21/48/20 16/38/20 15/35/20
f 34/78/21 29/67/21 28/64/21
f 29/68/22 24/56/22 23/53/22
f 30/69/23 19/45/23 24/56/23
f 19/45/24 26/60/24 20/46/24
f 26/60/25 21/49/25 20/46/25
f 21/49/26 28/65/26 22/51/26
f 34/80/27 41/96/27 35/82/27
f 35/81/28 30/70/28 29/67/28
f 36/83/29 25/59/29 30/70/29
f 31/73/30 26/61/30 25/57/30
f 26/61/31 33/76/31 27/62/31
f 33/76/32 28/66/32 27/62/32
f 35/82/33 42/98/33 36/84/33
f 36/84/34 37/87/34 31/71/34
f 37/87/35 32/75/35 31/71/35
f 38/89/36 33/77/36 32/75/36
f 39/91/37 34/80/37 33/77/37
f 40/92/38 43/99/38 41/95/38
f 41/95/39 43/99/39 42/97/39
f 42/97/40 43/99/40 37/85/40
f 37/86/41 43/100/41 38/88/41
f 38/88/42 43/100/42 39/90/42
f 39/90/43 43/100/43 40/93/43
f 10/24/4 16/37/4 17/39/4
f 16/36/44 22/50/44 23/54/44
f 17/39/10 18/42/10 12/28/10
f 12/28/11 18/42/11 13/30/11
f 7/17/12 13/30/12 14/32/12
f 14/32/13 15/34/13 9/21/13
f 15/34/14 16/37/14 10/24/14
f 22/51/15 28/65/15 29/68/15
f 17/40/45 23/54/45 24/55/45
f 24/55/17 19/43/17 13/31/17
f 19/44/46 20/47/46 14/33/46
f 20/47/47 21/48/47 15/35/47
f 21/48/20 22/52/20 16/38/20
f 34/78/21 35/81/21 29/67/21
f 29/68/22 30/69/22 24/56/22
f 30/69/23 25/58/23 19/45/23
f 19/45/24 25/58/24 26/60/24
f 26/60/25 27/63/25 21/49/25
f 21/49/26 27/63/26 28/65/26
f 34/80/48 40/94/48 41/96/48
f 35/81/28 36/83/28 30/70/28
f 36/83/29 31/72/29 25/59/29
f 31/73/30 32/74/30 26/61/30
f 26/61/31 32/74/31 33/76/31
f 33/76/32 34/79/32 28/66/32
f 35/82/49 41/96/49 42/98/49
f 36/84/34 42/98/34 37/87/34
f 37/87/50 38/89/50 32/75/50
f 38/89/51 39/91/51 33/77/51
f 39/91/37 40/94/37 34/80/37
usemtl Material.003
f 8/19/1 3/6/1 2/5/1
f 9/20/2 4/9/2 3/6/2
f 10/23/3 5/11/3 4/8/3
f 2/4/5 3/7/5 5/12/5
f 7/15/6 2/5/6 1/1/6
f 12/27/7 1/3/7 6/14/7
f 11/26/8 6/14/8 5/11/8
f 8/19/1 9/20/1 3/6/1
f 9/20/2 10/22/2 4/9/2
f 10/23/3 11/26/3 5/11/3
f 3/7/5 4/10/5 5/12/5
f 5/12/5 6/13/5 1/2/5
f 1/2/5 2/4/5 5/12/5
f 7/15/6 8/19/6 2/5/6
f 12/27/7 7/16/7 1/3/7
f 11/26/8 12/27/8 6/14/8
