# Blender 3.3.1
# www.blender.org
mtllib house.mtl
o Cube
v -0.750000 0.000000 1.000000
v -0.750000 1.000000 1.000000
v -0.750000 0.000000 -1.000000
v -0.750000 1.000000 -1.000000
v 0.750000 0.000000 1.000000
v 0.750000 1.000000 1.000000
v 0.750000 0.000000 -1.000000
v 0.750000 1.000000 -1.000000
vn -1.0000 -0.0000 -0.0000
vn -0.0000 -0.0000 -1.0000
vn 1.0000 -0.0000 -0.0000
vn -0.0000 -0.0000 1.0000
vn -0.0000 -1.0000 -0.0000
vn -0.0000 1.0000 -0.0000
vt -0.125000 -2.000000
vt -0.125000 3.000000
vt -1.375000 1.750000
vt 1.125000 -2.000000
vt 1.125000 3.000000
vt 2.375000 1.750000
vt -0.125000 -0.750000
vt -1.375000 0.500000
vt 1.125000 -0.750000
vt 2.375000 0.500000
vt -0.125000 1.750000
vt 1.125000 1.750000
vt -0.125000 0.500000
vt 1.125000 0.500000
s 0
usemtl Material.001
f 1/1/1 2/4/1 4/9/1 3/7/1
f 3/7/2 4/9/2 8/14/2 7/13/2
f 7/13/3 8/14/3 6/12/3 5/11/3
f 5/11/4 6/12/4 2/5/4 1/2/4
f 3/8/5 7/13/5 5/11/5 1/3/5
f 8/14/6 4/10/6 2/6/6 6/12/6
o Cube.001
v -0.710650 0.859480 -1.250000
v 0.000000 1.807013 -1.250000
v 0.710650 0.859480 -1.250000
v 0.000000 2.016012 -1.250000
v -0.937500 0.766012 -1.250000
v 0.937500 0.766012 -1.250000
v 0.000000 1.807013 -1.024483
v -0.710650 0.859480 -1.024483
v 0.710650 0.859480 -1.024483
v 0.000000 1.807013 -1.060084
v -0.710650 0.859480 -1.060084
v 0.710650 0.859480 -1.060084
v -0.710650 0.859480 1.112529
v 0.000000 1.807013 1.112529
v 0.710650 0.859480 1.112529
v -0.937500 0.766012 -1.250000
v -0.937500 0.766012 1.250000
v 0.000000 2.016012 1.250000
v 0.000000 2.016012 -1.250000
v 0.937500 0.766012 -1.250000
v 0.937500 0.766012 1.250000
v -0.710650 0.859480 1.250000
v 0.000000 1.807013 1.250000
v 0.000000 1.807013 -1.250000
v 0.710650 0.859480 -1.250000
v 0.710650 0.859480 1.250000
v -0.710650 0.859480 1.112529
v 0.000000 1.807013 1.112529
v 0.710650 0.859480 1.112529
vn -0.8000 -0.6000 -0.0000
vn -0.0000 1.0000 -0.0000
vn -0.0000 -0.0000 -1.0000
vn 0.8000 0.6000 -0.0000
vn 0.8000 -0.6000 -0.0000
vn -0.0000 -1.0000 -0.0000
vn -0.8000 0.6000 -0.0000
vn -0.0000 -0.0000 1.0000
vt 1.645500 -0.031533
vt 1.645500 0.916000
vt 0.697967 -0.031533
vt 1.750000 1.125000
vt 1.750000 -0.125000
vt 0.500000 -0.125000
vt 1.645500 0.916000
vt 1.645500 -0.031533
vt 0.697967 -0.031533
vt 0.962213 -1.145500
vt 1.645500 0.916000
vt 0.014680 -1.145500
vt 1.645500 -0.031533
vt 0.014680 -0.197967
vt 0.697967 -0.031533
vt -1.895501 -0.031532
vt 0.014680 2.395501
vt 0.962213 2.395500
vt -1.895500 0.916001
vt 0.014680 1.447967
vt -0.947967 -0.031532
vt 1.750000 -0.125000
vt 0.500000 -1.375000
vt 3.000000 -0.125000
vt -0.750000 -1.375000
vt -2.000000 -0.125000
vt 3.000000 1.125000
vt -0.750000 2.375000
vt -2.000000 1.125000
vt 0.500000 2.375000
vt 1.750000 1.125000
vt 0.500000 -0.125000
vt -0.750000 -0.125000
vt -1.895501 -0.031532
vt -1.895500 0.916001
vt 1.645500 0.916000
vt 0.697967 -0.031533
vt -0.947967 -0.031532
vt -1.895501 -0.031532
vt -1.895500 0.916001
vt -0.947967 -0.031532
s 0
usemtl Material.001
f 14/20/8 11/17/8 33/51/8 28/46/8
f 11/17/8 10/16/8 32/50/8 33/51/8
f 23/35/8 21/30/8 35/53/8 37/55/8
f 21/30/8 22/33/8 36/54/8 35/53/8
f 15/21/10 17/23/10 20/29/10 18/25/10
f 19/26/9 18/24/9 20/28/9
f 17/23/12 16/22/12 19/27/12 20/29/12
f 16/22/13 15/21/13 18/25/13 19/27/13
f 23/34/14 22/32/14 21/31/14
f 22/33/8 23/35/8 37/55/8 36/54/8
f 13/19/8 14/20/8 28/46/8 24/36/8
usemtl Material.002
f 10/16/7 11/17/7 17/23/7 15/21/7
f 10/16/8 12/18/8 27/45/8 32/50/8
f 10/16/9 9/15/9 13/19/9 12/18/9
f 9/15/9 11/17/9 14/20/9 13/19/9
f 12/18/8 13/19/8 24/36/8 27/45/8
f 11/17/8 9/15/8 16/22/8 17/23/8
f 9/15/11 10/16/11 15/21/11 16/22/11
f 25/38/13 26/41/13 27/45/13 24/36/13
f 34/52/7 31/49/7 36/54/7 37/55/7
f 24/37/12 28/46/12 29/47/12 25/39/12
f 27/44/10 26/42/10 29/47/10 28/46/10
f 30/48/14 31/49/14 26/43/14 25/40/14
f 33/51/9 32/50/9 27/45/9 28/46/9
f 34/52/14 30/48/14 25/40/14 29/47/14
f 31/49/14 34/52/14 29/47/14 26/43/14
f 30/48/8 34/52/8 37/55/8 35/53/8
f 31/49/11 30/48/11 35/53/11 36/54/11
o Cube.002
v -0.577922 1.075401 0.100000
v -0.577922 1.675401 0.100000
v -0.577922 1.075401 -0.100000
v -0.577922 1.675401 -0.100000
v -0.377922 1.075401 0.100000
v -0.377922 1.675401 0.100000
v -0.377922 1.075401 -0.100000
v -0.377922 1.675401 -0.100000
vn -1.0000 -0.0000 -0.0000
vn -0.0000 -0.0000 -1.0000
vn 1.0000 -0.0000 -0.0000
vn -0.0000 -0.0000 1.0000
vn -0.0000 -1.0000 -0.0000
vn -0.0000 1.0000 -0.0000
vt 0.125000 0.875000
vt 1.125000 0.875000
vt 0.125000 0.750000
vt 0.125000 0.375000
vt 1.125000 0.375000
vt 0.875000 0.250000
vt 0.375000 0.875000
vt 0.125000 0.500000
vt 0.375000 0.375000
vt 0.625000 0.250000
vt 0.875000 0.875000
vt 0.375000 0.750000
vt 0.875000 0.375000
vt 0.875000 0.500000
vt 0.625000 0.875000
vt 0.375000 0.500000
vt 0.625000 0.375000
vt 0.625000 0.500000
s 0
usemtl Material
f 38/56/15 39/59/15 41/64/15 40/62/15
f 40/62/16 41/64/16 45/72/16 44/70/16
f 44/70/17 45/72/17 43/68/17 42/66/17
f 42/66/18 43/68/18 39/60/18 38/57/18
f 40/63/19 44/71/19 42/67/19 38/58/19
f 45/73/20 41/65/20 39/61/20 43/69/20
