# Blender 3.3.1
# www.blender.org
mtllib house.mtl
o Cube.001
v -0.710650 0.859480 -1.250000
v 0.000000 1.807013 -1.250000
v 0.710650 0.859480 -1.250000
v 0.000000 2.016012 -1.250000
v -0.937500 0.766012 -1.250000
v 0.937500 0.766012 -1.250000
v 0.000000 1.807013 -1.024483
v -0.710650 0.859480 -1.024483
v 0.710650 0.859480 -1.024483
v 0.000000 1.807013 -1.060084
v -0.710650 0.859480 -1.060084
v 0.710650 0.859480 -1.060084
v -0.710650 0.859480 1.112529
v 0.000000 1.807013 1.112529
v 0.710650 0.859480 1.112529
v -0.937500 0.766012 -1.250000
v -0.937500 0.766012 1.250000
v 0.000000 2.016012 1.250000
v 0.000000 2.016012 -1.250000
v 0.937500 0.766012 -1.250000
v 0.937500 0.766012 1.250000
v -0.710650 0.859480 1.250000
v 0.000000 1.807013 1.250000
v 0.000000 1.807013 -1.250000
v 0.710650 0.859480 -1.250000
v 0.710650 0.859480 1.250000
v -0.710650 0.859480 1.112529
v 0.000000 1.807013 1.112529
v 0.710650 0.859480 1.112529
v -0.750000 0.000000 1.000000
v -0.750000 1.000000 1.000000
v -0.750000 0.000000 -1.000000
v -0.750000 1.000000 -1.000000
v 0.750000 0.000000 1.000000
v 0.750000 1.000000 1.000000
v 0.750000 0.000000 -1.000000
v 0.750000 1.000000 -1.000000
v -0.577922 1.075401 0.100000
v -0.577922 1.675401 0.100000
v -0.577922 1.075401 -0.100000
v -0.577922 1.675401 -0.100000
v -0.377922 1.075401 0.100000
v -0.377922 1.675401 0.100000
v -0.377922 1.075401 -0.100000
v -0.377922 1.675401 -0.100000
vn -0.8000 -0.6000 -0.0000
vn -0.0000 1.0000 -0.0000
vn -0.0000 -0.0000 -1.0000
vn 0.8000 0.6000 -0.0000
vn 0.8000 -0.6000 -0.0000
vn -0.0000 -1.0000 -0.0000
vn -0.8000 0.6000 -0.0000
vn -0.0000 -0.0000 1.0000
vn -1.0000 -0.0000 -0.0000
vn 1.0000 -0.0000 -0.0000
vt 0.484772 0.767649
vt 0.038836 0.478731
vt 0.268791 0.812663
vt 0.219328 0.812662
vt 0.270256 0.298321
vt 0.224716 0.339321
vt 0.484772 0.946037
vt 0.268791 0.604842
vt 0.219328 0.604842
vt 0.270256 0.298321
vt 0.224716 0.571672
vt 0.245216 0.298321
vt 0.270256 0.298321
vt 0.000000 0.482233
vt 0.270256 0.298321
vt 0.245216 0.604842
vt 0.270256 0.298321
vt 0.270256 0.524456
vt 0.244059 0.812662
vt 0.460041 0.946037
vt 0.269621 0.506142
vt 0.269621 0.298321
vt 0.244060 0.812663
vt 0.460041 0.767649
vt 0.270256 0.524456
vt 0.270256 0.732277
vt 0.270256 0.298321
vt 0.244060 0.604842
vt 0.460041 1.000000
vt 0.274160 0.524456
vt 0.265717 0.506142
vt 0.460041 0.767649
vt 0.274160 0.524456
vt 0.265717 0.298321
vt 0.274161 0.860590
vt 0.274160 0.298321
vt 0.274160 0.732277
vt 0.793537 0.092940
vt 0.270256 0.298321
vt 0.979418 0.232351
vt 0.270256 0.298321
vt 0.979418 0.000000
vt 0.270256 0.298321
vt 0.274161 0.274161
vt 0.270256 0.298321
vt 0.274161 0.000000
vt 0.548321 0.000000
vt 0.274161 0.548321
vt 0.793537 0.306521
vt 0.548321 0.274160
vt 0.000000 0.298321
vt 0.793537 0.000000
vt 0.274160 0.298321
vt 0.270256 0.298321
vt 0.274161 0.274160
vt 0.265717 0.298321
vt 0.270256 0.298321
vt 0.548321 0.274161
vt 0.274160 0.000000
vt 0.265717 0.604842
vt 0.548321 0.548321
vt 0.000000 0.000000
vt 0.548321 0.183912
vt 0.947221 0.756142
vt 0.773037 0.273351
vt 0.587125 0.767649
vt 0.587125 0.946037
vt 0.947221 0.756142
vt 0.773037 0.041000
vt 0.270256 0.298321
vt 0.245217 0.339321
vt 0.245217 0.571672
vt 0.270256 0.298321
vt 0.587157 0.180411
vt 0.947221 0.548321
vt 0.270256 0.298321
vt 0.962297 0.756142
vt 0.602201 0.767649
vt 0.270256 0.298321
vt 0.932145 0.756142
vt 0.602201 0.946037
vt 0.270256 0.298321
vt 0.932145 0.548321
vt 0.962297 0.548321
vt 0.932145 0.767649
vt 0.548321 0.306521
vt 0.000000 0.824170
vt 0.548321 0.525849
vt 0.712817 0.767649
vt 0.493489 0.548321
vt 0.000000 0.604842
vt 0.932145 0.548321
vt 0.493489 0.767649
vt 0.712817 0.548321
vt 0.767649 0.306521
vt 0.981110 0.306521
vt 0.219328 0.824170
vt 0.767649 0.306521
vt 0.767649 0.525849
vt 0.493489 0.767649
vt 0.981110 0.525849
vt 0.274160 0.548321
vt 0.219328 0.604842
vt 0.493489 0.548321
vt 0.274160 0.767649
vt 0.767649 0.525849
vt 0.565193 0.767649
vt 0.514016 0.767649
vt 0.602201 0.767649
vt 0.565193 0.899246
vt 0.514016 0.899246
vt 0.624134 0.796893
vt 0.514016 0.767649
vt 0.624134 0.767649
vt 0.543260 0.767649
vt 0.543260 0.899246
vt 0.514016 0.899246
vt 0.646067 0.796893
vt 0.543260 0.767649
vt 0.565193 0.767649
vt 0.602201 0.796893
vt 0.565193 0.895726
vt 0.543260 0.899246
vt 0.624134 0.767649
vt 0.587125 0.767649
vt 0.484772 0.767649
vt 0.624134 0.796893
vt 0.646067 0.767649
vt 0.484772 0.899246
vt 0.587125 0.895726
s 0
usemtl Material.001
f 6/17/2 25/73/2 20/57/2
f 3/10/2 24/70/2 25/73/2
f 15/43/2 27/76/2 29/82/2
f 13/39/2 28/79/2 27/76/2
f 9/27/4 10/30/4 7/18/4
f 11/32/3 10/29/3 12/35/3
f 8/25/6 12/37/6 9/26/6
f 7/21/7 11/34/7 8/22/7
f 15/42/8 14/40/8 13/38/8
f 14/41/2 29/82/2 28/79/2
f 5/15/2 20/57/2 16/45/2
f 31/89/9 32/92/9 30/85/9
f 33/93/3 36/102/3 32/90/3
f 37/106/10 34/96/10 36/101/10
f 35/99/8 30/86/8 34/95/8
f 36/103/6 30/87/6 32/91/6
f 33/94/2 35/100/2 37/104/2
f 6/17/2 3/10/2 25/73/2
f 3/10/2 2/5/2 24/70/2
f 15/43/2 13/39/2 27/76/2
f 13/39/2 14/41/2 28/79/2
f 9/27/4 12/36/4 10/30/4
f 8/25/6 11/33/6 12/37/6
f 7/21/7 10/31/7 11/34/7
f 14/41/2 15/43/2 29/82/2
f 5/15/2 6/17/2 20/57/2
f 31/89/9 33/94/9 32/92/9
f 33/93/3 37/105/3 36/102/3
f 37/106/10 35/98/10 34/96/10
f 35/99/8 31/88/8 30/86/8
f 36/103/6 34/97/6 30/87/6
f 33/94/2 31/89/2 35/100/2
usemtl Material.002
f 3/9/1 7/19/1 2/4/1
f 2/5/2 19/54/2 24/70/2
f 2/6/3 5/14/3 4/12/3
f 3/11/3 5/14/3 1/2/3
f 4/13/2 16/45/2 19/54/2
f 1/3/2 9/28/2 3/8/2
f 2/7/5 8/24/5 1/1/5
f 18/50/7 16/46/7 17/47/7
f 23/68/1 29/83/1 26/75/1
f 20/58/6 17/48/6 16/44/6
f 18/51/4 20/59/4 19/53/4
f 23/69/8 17/49/8 22/65/8
f 24/71/3 20/60/3 25/72/3
f 22/65/8 21/63/8 26/74/8
f 23/69/8 21/63/8 18/52/8
f 26/75/2 27/77/2 22/64/2
f 22/66/5 28/81/5 23/67/5
f 3/9/1 9/28/1 7/19/1
f 2/5/2 4/13/2 19/54/2
f 2/6/3 1/2/3 5/14/3
f 3/11/3 6/16/3 5/14/3
f 4/13/2 5/15/2 16/45/2
f 1/3/2 8/23/2 9/28/2
f 2/7/5 7/20/5 8/24/5
f 18/50/7 19/55/7 16/46/7
f 23/68/1 28/80/1 29/83/1
f 20/58/6 21/61/6 17/48/6
f 18/51/4 21/62/4 20/59/4
f 23/69/8 18/52/8 17/49/8
f 24/71/3 19/56/3 20/60/3
f 22/65/8 17/49/8 21/63/8
f 23/69/8 26/74/8 21/63/8
f 26/75/2 29/84/2 27/77/2
f 22/66/5 27/78/5 28/81/5
usemtl Material
f 39/110/9 40/115/9 38/107/9
f 41/117/3 44/126/3 40/113/3
f 45/130/10 42/120/10 44/125/10
f 43/123/8 38/108/8 42/119/8
f 44/127/6 38/109/6 40/114/6
f 41/118/2 43/124/2 45/128/2
f 39/110/9 41/116/9 40/115/9
f 41/117/3 45/129/3 44/126/3
f 45/130/10 43/122/10 42/120/10
f 43/123/8 39/111/8 38/108/8
f 44/127/6 42/121/6 38/109/6
f 41/118/2 39/112/2 43/124/2
